
<svg version="1.0" xmlns="http://www.w3.org/2000/svg"
 width="200.000000pt" height="130.000000pt" viewBox="0 0 200.000000 130.000000"
 preserveAspectRatio="xMidYMid meet">
<g transform="translate(0.000000,130.000000) scale(0.100000,-0.100000)"
fill="#000" stroke="none">
<path d="M230 1150 c-19 -19 -20 -33 -20 -319 0 -279 1 -300 19 -322 l19 -24
752 0 752 0 19 24 c18 22 19 43 19 322 0 286 -1 300 -20 319 -20 20 -33 20
-770 20 -737 0 -750 0 -770 -20z m1500 -320 l0 -280 -730 0 -730 0 0 280 0
280 730 0 730 0 0 -280z"/>
<path d="M866 975 c-15 -40 1 -45 134 -45 133 0 149 5 134 45 -9 22 -259 22
-268 0z"/>
<path d="M322 748 c-17 -17 -15 -45 4 -52 20 -8 1328 -8 1348 0 19 7 21 35 4
52 -17 17 -1339 17 -1356 0z"/>
<path d="M314 635 c-4 -8 -4 -22 0 -30 5 -13 88 -15 688 -13 l683 3 0 25 0 25
-683 3 c-600 2 -683 0 -688 -13z"/>
<path d="M950 411 c-23 -22 -30 -39 -30 -67 0 -33 7 -44 53 -87 l52 -48 -28
-23 c-34 -28 -33 -59 2 -64 36 -6 81 43 81 88 0 43 -18 71 -65 100 -42 26 -44
44 -9 66 31 21 29 58 -4 62 -14 2 -33 -7 -52 -27z"/>
<path d="M660 361 c-23 -23 -30 -38 -30 -69 0 -36 6 -45 53 -87 l52 -46 -27
-24 c-38 -33 -37 -65 1 -65 43 0 81 43 81 92 0 40 -20 67 -81 110 l-24 16 28
30 c56 59 4 101 -53 43z"/>
<path d="M1240 361 c-23 -23 -30 -38 -30 -69 0 -36 6 -45 53 -87 l52 -46 -27
-24 c-37 -32 -37 -65 -1 -65 40 0 83 46 83 88 0 46 -14 68 -60 97 -22 14 -40
30 -40 35 0 5 12 20 26 33 31 29 29 61 -4 65 -14 2 -33 -7 -52 -27z"/>
</g>
</svg>
